<?xml version="1.0" standalone="no"?>
<!DOCTYPE svg PUBLIC "-//W3C//DTD SVG 20010904//EN"
    "http://www.w3.org/TR/2001/REC-SVG-20010904/DTD/svg10.dtd">
<svg version="1.0" xmlns="http://www.w3.org/2000/svg"
     width="300.000000pt" height="235.000000pt" viewBox="0 0 300.000000 235.000000"
     preserveAspectRatio="xMidYMid meet">
    <metadata>
        Created by potrace 1.16, written by Peter Selinger 2001-2019
    </metadata>
    <g transform="translate(0.000000,235.000000) scale(0.100000,-0.100000)"
       fill="#000000" stroke="none">
        <path d="M2205 2109 c-211 -35 -363 -192 -396 -408 -57 -372 241 -657 601
-575 216 49 360 244 360 489 0 258 -167 461 -405 495 -79 11 -91 11 -160 -1z
m153 -245 c46 -9 98 -52 128 -107 26 -47 29 -61 29 -142 0 -115 -26 -173 -98
-222 -94 -63 -208 -53 -287 26 -54 54 -73 107 -72 202 0 136 68 226 185 248
41 8 56 7 115 -5z"/>
        <path d="M220 1615 l0 -495 125 0 125 0 2 174 3 175 110 -174 110 -174 238 -1
237 0 0 380 0 380 100 0 100 0 0 -380 0 -380 125 0 125 0 0 380 0 380 120 0
120 0 0 115 0 115 -470 0 -470 0 -1 -122 0 -123 -19 50 c-11 28 -36 67 -57 88
-82 85 -176 107 -454 107 l-169 0 0 -495z m431 226 c15 -18 19 -36 17 -69 -4
-61 -32 -81 -126 -89 l-72 -6 0 98 0 97 81 -4 c71 -3 83 -6 100 -27z m267
-487 l-3 -117 -87 131 c-81 121 -86 131 -66 138 52 16 144 127 150 181 4 35 9
-218 6 -333z"/>
        <path d="M432 720 c-151 -61 -194 -297 -76 -413 41 -41 78 -58 140 -64 145
-15 254 82 254 226 l0 41 -120 0 -120 0 0 -30 0 -30 90 0 c101 0 103 -2 67
-64 -30 -53 -78 -80 -143 -80 -199 0 -226 312 -32 358 49 11 115 -13 152 -55
25 -30 40 -39 64 -39 39 0 40 10 7 66 -35 60 -106 94 -194 93 -37 0 -76 -4
-89 -9z"/>
        <path d="M1850 485 l0 -245 135 0 135 0 0 30 0 30 -100 0 -100 0 0 80 0 80 90
0 90 0 0 30 0 30 -90 0 -90 0 0 75 0 75 100 0 100 0 0 30 0 30 -135 0 -135 0
0 -245z"/>
        <path d="M2242 713 c-61 -30 -81 -116 -43 -179 15 -25 37 -39 106 -64 120 -46
156 -98 102 -148 -43 -41 -126 -22 -147 34 -8 19 -17 24 -46 24 -34 0 -36 -1
-29 -27 11 -46 34 -74 78 -94 114 -51 237 4 237 107 0 86 -20 108 -141 153
-45 16 -79 36 -91 52 -44 59 23 126 96 95 19 -8 39 -24 46 -35 8 -15 20 -21
46 -21 34 0 36 1 29 28 -15 60 -68 92 -152 92 -33 0 -72 -7 -91 -17z"/>
        <path d="M959 693 c-71 -186 -169 -446 -169 -449 0 -2 17 -4 38 -4 37 0 38 1
57 55 l18 55 103 0 103 0 19 -52 c18 -49 22 -53 56 -56 20 -2 36 0 36 5 0 4
-39 113 -87 240 l-88 233 -38 0 c-32 0 -39 -4 -48 -27z m89 -176 l40 -107 -80
0 c-60 0 -79 3 -76 13 3 6 20 56 38 109 19 53 35 96 36 95 2 -1 21 -51 42
-110z"/>
        <path d="M1280 480 l0 -240 35 0 35 0 2 166 3 166 66 -163 c64 -158 68 -164
97 -167 l30 -3 68 172 69 173 3 -172 2 -172 35 0 35 0 0 241 0 240 -41 -3 -41
-3 -76 -182 c-42 -101 -79 -183 -82 -183 -4 0 -42 83 -85 185 l-78 185 -38 0
-39 0 0 -240z"/>
    </g>
</svg>
